<svg width="1279" height="454" viewBox="0 0 1279 454" fill="none" xmlns="http://www.w3.org/2000/svg">
<g clip-path="url(#clip0_605_177)">
<path d="M4.47089 173.938C69.709 198.37 232.628 250.144 362.399 261.786C492.17 273.427 654.501 237.533 739.134 196.035C823.767 154.536 1006.67 69.168 1129.39 76.9288C1282.78 86.6297 1507.89 237.533 1521.4 261.786" stroke="#28B2FB"/>
<path d="M5.34629 137.078C68.6326 165.501 227.359 227.263 355.974 246.927C484.589 266.591 649.196 240.849 736.696 204.695C824.197 168.542 1012.98 94.7146 1134.84 110.07C1287.17 129.264 1500.63 293.785 1512.32 318.82" stroke="#28B2FB"/>
<path d="M7.8579 109.21C69.8471 139.942 225.738 207.505 353.387 231.894C481.036 256.283 646.638 236.629 735.653 203.73C824.668 170.831 1016.53 104.022 1137.62 123.857C1288.99 148.651 1495.06 320.906 1505.65 346.353" stroke="#28B2FB"/>
<path d="M11.8674 79.6973C72.3672 112.832 224.965 186.444 351.361 215.815C477.756 245.185 644.123 232.042 734.59 202.662C825.057 173.283 1019.86 114.056 1139.92 138.62C1289.99 169.325 1487.84 349.501 1497.23 375.34" stroke="#28B2FB"/>
<path d="M-28.3452 40.8698C33.042 77.7989 188.356 160.574 318.516 196.242C448.675 231.909 622.481 224.934 718.059 197.998C813.636 171.063 1019.25 117.265 1143.04 147.673C1297.78 185.684 1495.09 381.208 1503.63 408.483" stroke="#28B2FB"/>
<path d="M-23.1147 17.6709C36.9232 56.4203 189.204 143.807 318.022 183.357C446.841 222.906 620.802 221.144 717.289 197.088C813.776 173.033 1021.2 125.426 1143.84 159.529C1297.14 202.157 1487.38 403.492 1494.94 431.007" stroke="#28B2FB"/>
<path d="M-16.1645 -8.50684C42.261 32.2624 190.894 124.779 318.02 168.693C445.146 212.607 619.058 216.776 716.454 196.026C813.849 175.276 1023.06 134.774 1144.23 173.034C1295.7 220.858 1477.64 428.538 1484.09 456.293" stroke="#28B2FB"/>
<path d="M-6.22011 -40.2072C50.3282 3.16764 194.75 102.279 320.053 151.724C445.355 201.168 619.595 212.732 718.338 196.051C817.081 179.37 1028.98 147.622 1148.6 191.143C1298.12 245.544 1470.14 461.587 1475.2 489.701" stroke="#28B2FB"/>
<path d="M-182.097 88.2214C-118.43 125.765 42.5436 209.765 177.1 245.415C311.657 281.064 490.774 272.374 589.036 243.781C687.297 215.187 898.728 157.95 1026.67 188.233C1186.59 226.086 1392.02 425.966 1401.1 454.011" stroke="#FE00FE"/>
<path d="M-173.283 49.4521C-112.531 90.8589 41.8768 184.651 173.495 228.566C305.114 272.481 484.462 274.921 584.607 252.489C684.753 230.056 899.922 186.065 1025.33 224.214C1182.1 271.901 1372.31 484.065 1379.3 512.609" stroke="#FE00FE"/>
<path d="M-164.665 20.4723C-105.778 64.0851 44.3938 163.493 173.981 212.224C303.568 260.955 482.664 270.004 583.712 251.281C684.76 232.558 901.684 196.534 1025.32 239.275C1179.87 292.702 1360.62 511.706 1366.36 540.485" stroke="#FE00FE"/>
<path d="M-154.114 -9.97327C-97.3137 35.9081 48.0861 141.112 175.283 194.879C302.479 248.645 480.99 264.707 582.819 249.962C684.647 235.218 903.052 207.73 1024.58 255.279C1176.5 314.715 1346.88 540.605 1351.27 569.583" stroke="#FE00FE"/>
<path d="M-188.271 -58.2155C-131.346 -8.16704 14.9609 107.203 144.785 168.297C274.61 229.391 459.655 253.305 566.358 242.062C673.061 230.818 901.72 211.009 1025.95 265.403C1181.23 333.395 1347.75 575.395 1350.94 605.736" stroke="#FE00FE"/>
<path d="M-177.782 -81.774C-122.671 -30.046 19.4449 89.648 147.022 154.6C274.599 219.553 458.693 249.001 565.74 240.962C672.786 232.923 902.03 219.978 1024.25 278.067C1177.03 350.677 1334.84 597.54 1336.93 627.96" stroke="#FE00FE"/>
<path d="M-164.839 -108.169C-111.863 -54.598 25.3021 69.858 150.158 139.114C275.014 208.371 457.787 244.075 565.085 239.69C672.384 235.305 901.993 230.185 1021.78 292.399C1171.5 370.167 1319.19 622.239 1320.06 652.709" stroke="#FE00FE"/>
<path d="M-147.552 -139.857C-97.1162 -83.8724 34.1911 46.7895 155.937 121.559C277.683 196.328 459.219 239.9 567.07 240.055C674.921 240.211 905.499 244.819 1022.51 312.31C1168.77 396.672 1304.2 655.791 1303.53 686.392" stroke="#FE00FE"/>
<path d="M-224.057 121.366C-158.509 159.23 7.16079 244.03 145.458 280.317C283.756 316.605 467.553 308.712 568.254 280.534C668.955 252.357 885.659 196.018 1017.14 226.904C1181.48 265.511 1393.39 466.496 1402.87 494.607" stroke="white"/>
<path d="M-215.218 82.6007C-152.642 124.318 6.34209 218.891 141.668 263.437C276.994 307.984 461.087 311.233 563.756 289.23C666.424 267.227 887.035 224.164 1015.96 262.912C1177.12 311.347 1373.48 524.559 1380.81 553.161" stroke="white"/>
<path d="M-206.528 53.6333C-145.853 97.5506 8.81237 197.725 142.079 247.083C275.346 296.441 459.216 306.304 562.83 288.018C666.444 269.732 888.899 234.65 1016.03 277.987C1174.94 332.157 1361.63 552.173 1367.68 581.004" stroke="white"/>
<path d="M-195.861 23.2075C-137.316 69.3861 12.4825 175.34 143.323 229.727C274.163 284.115 457.469 300.994 561.906 286.694C666.343 272.393 890.363 245.863 1015.36 294.002C1171.6 354.175 1347.68 581.037 1352.34 610.061" stroke="white"/>
<path d="M-231.177 -25.2324C-172.482 25.1176 -21.698 141.251 111.879 202.984C245.455 264.717 435.511 289.486 544.969 278.712C654.427 267.937 889.014 249.139 1016.81 304.141C1176.55 372.893 1348.76 615.863 1352.19 646.246" stroke="white"/>
<path d="M-220.537 -48.7653C-163.696 3.25767 -17.1897 123.7 114.101 189.285C245.392 254.87 434.501 285.174 544.329 277.608C654.157 270.043 889.38 258.118 1015.14 316.808C1172.33 390.172 1335.62 637.969 1337.94 668.426" stroke="white"/>
<path d="M-207.394 -75.126C-152.734 -21.2681 -11.2837 103.918 117.237 173.799C245.758 243.68 433.544 280.238 543.65 276.332C653.756 272.426 889.397 268.333 1012.67 331.143C1166.77 409.655 1319.7 662.621 1320.75 693.123" stroke="white"/>
<path d="M-189.82 -106.765C-137.754 -50.5028 -2.28348 80.8686 123.075 156.254C248.433 231.639 434.991 276.066 545.689 276.707C656.386 277.347 893.073 282.997 1013.53 351.075C1164.11 436.172 1304.49 696.136 1303.97 726.762" stroke="white"/>
<rect opacity="0.57" x="1279.93" y="730.197" width="463.725" height="662.763" transform="rotate(-180 1279.93 730.197)" fill="url(#paint0_linear_605_177)"/>
</g>
<defs>
<linearGradient id="paint0_linear_605_177" x1="1290.01" y1="748.351" x2="1464.67" y2="1156" gradientUnits="userSpaceOnUse">
<stop stop-color="#223D5B"/>
<stop offset="1" stop-color="#1F2225" stop-opacity="0"/>
</linearGradient>
<clipPath id="clip0_605_177">
<rect width="1280" height="454" fill="white" transform="translate(-1)"/>
</clipPath>
</defs>
</svg>
