<svg width="1280" height="743" viewBox="0 0 1280 743" fill="none" xmlns="http://www.w3.org/2000/svg">
<path d="M5.47089 174.938C70.709 199.37 233.628 251.144 363.399 262.786C493.17 274.427 655.501 238.533 740.134 197.035C824.767 155.536 1007.67 70.1681 1130.39 77.9288C1283.78 87.6298 1508.89 238.533 1522.4 262.786" stroke="#28B2FB"/>
<path d="M6.34629 138.078C69.6326 166.501 228.359 228.263 356.974 247.927C485.589 267.591 650.196 241.849 737.696 205.695C825.197 169.542 1013.98 95.7146 1135.84 111.07C1288.17 130.264 1501.63 294.785 1513.32 319.82" stroke="#28B2FB"/>
<path d="M8.8579 110.21C70.8471 140.942 226.738 208.505 354.387 232.894C482.036 257.283 647.638 237.629 736.653 204.73C825.668 171.831 1017.53 105.022 1138.62 124.857C1289.99 149.651 1496.06 321.906 1506.65 347.353" stroke="#28B2FB"/>
<path d="M12.8674 80.6973C73.3672 113.832 225.965 187.444 352.361 216.815C478.756 246.185 645.123 233.042 735.59 203.662C826.057 174.283 1020.86 115.056 1140.92 139.62C1290.99 170.325 1488.84 350.501 1498.23 376.34" stroke="#28B2FB"/>
<path d="M-27.3452 41.8698C34.042 78.7989 189.356 161.574 319.516 197.242C449.675 232.909 623.481 225.934 719.059 198.998C814.636 172.063 1020.25 118.265 1144.04 148.673C1298.78 186.684 1496.09 382.208 1504.63 409.483" stroke="#28B2FB"/>
<path d="M-22.1147 18.6709C37.9232 57.4203 190.204 144.807 319.022 184.357C447.841 223.906 621.802 222.144 718.289 198.088C814.776 174.033 1022.2 126.426 1144.84 160.529C1298.14 203.157 1488.38 404.492 1495.94 432.007" stroke="#28B2FB"/>
<path d="M-15.1645 -7.50684C43.261 33.2624 191.894 125.779 319.02 169.693C446.146 213.607 620.058 217.776 717.454 197.026C814.849 176.276 1024.06 135.774 1145.23 174.034C1296.7 221.858 1478.64 429.538 1485.09 457.293" stroke="#28B2FB"/>
<path d="M-5.22011 -39.2072C51.3282 4.16767 195.75 103.279 321.053 152.724C446.355 202.168 620.595 213.732 719.338 197.051C818.081 180.371 1029.98 148.622 1149.6 192.143C1299.12 246.544 1471.14 462.587 1476.2 490.701" stroke="#28B2FB"/>
<path d="M-181.097 89.2213C-117.43 126.765 43.5436 210.765 178.1 246.414C312.657 282.064 491.774 273.374 590.036 244.781C688.297 216.187 899.728 158.95 1027.67 189.233C1187.59 227.086 1393.02 426.965 1402.1 455.011" stroke="#FE00FE"/>
<path d="M-172.283 50.452C-111.531 91.8589 42.8768 185.651 174.495 229.566C306.114 273.481 485.462 275.921 585.607 253.489C685.753 231.056 900.922 187.065 1026.33 225.214C1183.1 272.901 1373.31 485.065 1380.3 513.609" stroke="#FE00FE"/>
<path d="M-163.665 21.4724C-104.778 65.0851 45.3938 164.493 174.981 213.224C304.568 261.955 483.664 271.005 584.712 252.281C685.76 233.558 902.684 197.534 1026.32 240.275C1180.87 293.702 1361.62 512.706 1367.36 541.485" stroke="#FE00FE"/>
<path d="M-153.114 -8.97321C-96.3137 36.9081 49.0861 142.112 176.283 195.879C303.479 249.645 481.99 265.707 583.819 250.962C685.647 236.218 904.052 208.73 1025.58 256.279C1177.5 315.716 1347.88 541.605 1352.27 570.583" stroke="#FE00FE"/>
<path d="M-187.271 -57.2155C-130.346 -7.1671 15.9609 108.203 145.785 169.297C275.61 230.391 460.655 254.305 567.358 243.061C674.061 231.818 902.72 212.009 1026.95 266.403C1182.23 334.394 1348.75 576.395 1351.94 606.736" stroke="#FE00FE"/>
<path d="M-176.782 -80.774C-121.671 -29.046 20.4449 90.648 148.022 155.6C275.599 220.553 459.693 250.001 566.74 241.962C673.786 233.923 903.03 220.978 1025.25 279.067C1178.03 351.677 1335.84 598.54 1337.93 628.96" stroke="#FE00FE"/>
<path d="M-163.839 -107.169C-110.863 -53.598 26.3021 70.8579 151.158 140.114C276.014 209.371 458.787 245.075 566.085 240.69C673.384 236.305 902.993 231.185 1022.78 293.399C1172.5 371.167 1320.19 623.239 1321.06 653.709" stroke="#FE00FE"/>
<path d="M-146.552 -138.857C-96.1162 -82.8724 35.1911 47.7895 156.937 122.559C278.683 197.328 460.219 240.9 568.07 241.055C675.921 241.211 906.499 245.819 1023.51 313.31C1169.77 397.672 1305.2 656.791 1304.53 687.393" stroke="#FE00FE"/>
<path d="M-223.057 122.366C-157.509 160.23 8.16079 245.03 146.458 281.317C284.756 317.605 468.553 309.712 569.254 281.534C669.955 253.357 886.659 197.018 1018.14 227.904C1182.48 266.511 1394.39 467.496 1403.87 495.607" stroke="white"/>
<path d="M-214.218 83.6007C-151.642 125.318 7.34209 219.891 142.668 264.437C277.994 308.984 462.087 312.233 564.756 290.23C667.424 268.227 888.035 225.164 1016.96 263.912C1178.12 312.347 1374.48 525.559 1381.81 554.161" stroke="white"/>
<path d="M-205.528 54.6333C-144.853 98.5506 9.81237 198.725 143.079 248.083C276.346 297.441 460.216 307.304 563.83 289.018C667.444 270.732 889.899 235.65 1017.03 278.987C1175.94 333.157 1362.63 553.173 1368.68 582.004" stroke="white"/>
<path d="M-194.861 24.2074C-136.316 70.386 13.4825 176.34 144.323 230.727C275.163 285.115 458.469 301.994 562.906 287.694C667.343 273.393 891.363 246.863 1016.36 295.002C1172.6 355.175 1348.68 582.037 1353.34 611.061" stroke="white"/>
<path d="M-230.177 -24.2324C-171.482 26.1176 -20.698 142.251 112.879 203.984C246.455 265.717 436.511 290.486 545.969 279.711C655.427 268.937 890.014 250.139 1017.81 305.14C1177.55 373.893 1349.76 616.863 1353.19 647.246" stroke="white"/>
<path d="M-219.537 -47.7652C-162.696 4.25771 -16.1897 124.7 115.101 190.285C246.392 255.871 435.501 286.174 545.329 278.608C655.157 271.043 890.38 259.118 1016.14 317.808C1173.33 391.172 1336.62 638.969 1338.94 669.426" stroke="white"/>
<path d="M-206.394 -74.1259C-151.734 -20.268 -10.2837 104.918 118.237 174.799C246.758 244.68 434.544 281.238 544.65 277.332C654.756 273.426 890.397 269.333 1013.67 332.143C1167.77 410.655 1320.7 663.621 1321.75 694.123" stroke="white"/>
<path d="M-188.82 -105.765C-136.754 -49.5028 -1.28348 81.8686 124.075 157.254C249.433 232.639 435.991 277.066 546.689 277.707C657.386 278.347 894.073 283.997 1014.53 352.075C1165.11 437.172 1305.49 697.136 1304.97 727.762" stroke="white"/>
<rect opacity="0.57" x="1280.93" y="731.197" width="463.725" height="662.763" transform="rotate(-180 1280.93 731.197)" fill="url(#paint0_linear_0_1)"/>
<g opacity="0.57">
<rect width="184" height="458" fill="url(#paint1_linear_0_1)"/>
<rect width="184" height="458" fill="url(#paint2_linear_0_1)"/>
</g>
<defs>
<linearGradient id="paint0_linear_0_1" x1="1291.01" y1="749.351" x2="1465.67" y2="1157" gradientUnits="userSpaceOnUse">
<stop stop-color="black"/>
<stop offset="1" stop-color="black" stop-opacity="0"/>
</linearGradient>
<linearGradient id="paint1_linear_0_1" x1="7.20088e-07" y1="63.5" x2="184" y2="201" gradientUnits="userSpaceOnUse">
<stop stop-color="black"/>
<stop offset="1" stop-color="black" stop-opacity="0"/>
</linearGradient>
<linearGradient id="paint2_linear_0_1" x1="7.20088e-07" y1="63.5" x2="184" y2="201" gradientUnits="userSpaceOnUse">
<stop stop-color="black"/>
<stop offset="1" stop-color="black" stop-opacity="0"/>
</linearGradient>
</defs>
</svg>