<svg width="100" height="100" viewBox="0 0 100 100" fill="none" xmlns="http://www.w3.org/2000/svg">
<path d="M50.0006 8.33398V12.5007M12.5007 50.0006H8.33398M22.9173 22.9173L20.4169 20.4169M77.084 22.9173L79.585 20.4169M91.6673 50.0006H87.5006M41.6673 56.2506H58.334M50.0006 56.2506V77.084M64.584 70.3088C70.8926 65.7705 75.0006 58.3653 75.0006 50.0006C75.0006 36.1935 63.8078 25.0007 50.0006 25.0007C36.1935 25.0007 25.0007 36.1935 25.0007 50.0006C25.0007 58.3653 29.1087 65.7705 35.4173 70.3088V78.334C35.4173 83.0011 35.4173 85.3346 36.3256 87.1172C37.1245 88.6853 38.3994 89.9601 39.9674 90.759C41.75 91.6673 44.0835 91.6673 48.7506 91.6673H51.2507C55.9178 91.6673 58.2513 91.6673 60.0339 90.759C61.6019 89.9601 62.8768 88.6853 63.6757 87.1172C64.584 85.3346 64.584 83.0011 64.584 78.334V70.3088Z" stroke="#40C6FF" stroke-width="8.33333" stroke-linecap="round" stroke-linejoin="round"/>
</svg>
