<svg width="82" height="90" viewBox="0 0 82 90" fill="none" xmlns="http://www.w3.org/2000/svg">
<path d="M41 1.82126e-08C47.9857 -0.000256397 54.6996 2.70705 59.7311 7.5531C64.7626 12.3991 67.72 19.0067 67.982 25.9875L68 27H72.5C74.7706 26.9993 76.9576 27.8568 78.6225 29.4007C80.2874 30.9446 81.3072 33.0608 81.4775 35.325L81.5 36V81C81.5007 83.2706 80.6432 85.4576 79.0993 87.1225C77.5554 88.7874 75.4392 89.8072 73.175 89.9775L72.5 90H9.5C7.22941 90.0007 5.04245 89.1432 3.37753 87.5993C1.71262 86.0554 0.692795 83.9392 0.522501 81.675L0.5 81V36C0.499282 33.7294 1.35683 31.5424 2.90074 29.8775C4.44464 28.2126 6.5608 27.1928 8.825 27.0225L9.5 27H14C14 19.8392 16.8446 12.9716 21.9081 7.90812C26.9716 2.84463 33.8392 1.82126e-08 41 1.82126e-08ZM72.5 36H9.5V81H72.5V36ZM41 45C42.9197 45.0006 44.7888 45.615 46.3345 46.7534C47.8801 47.8918 49.0213 49.4947 49.5913 51.3277C50.1613 53.1608 50.1302 55.1281 49.5026 56.9423C48.875 58.7565 47.6838 60.3225 46.103 61.4115L45.5 61.794V67.5C45.4987 68.647 45.0595 69.7501 44.2722 70.5842C43.4848 71.4182 42.4087 71.9201 41.2637 71.9873C40.1187 72.0545 38.9913 71.682 38.1118 70.9458C37.2322 70.2097 36.667 69.1654 36.5315 68.0265L36.5 67.5V61.794C34.7843 60.8033 33.4435 59.2743 32.6854 57.4439C31.9273 55.6136 31.7943 53.5842 32.3071 51.6706C32.8198 49.757 33.9497 48.066 35.5214 46.8599C37.0931 45.6539 39.0189 45.0001 41 45ZM41 9C36.2261 9 31.6477 10.8964 28.2721 14.2721C24.8964 17.6477 23 22.2261 23 27H59C59 22.2261 57.1036 17.6477 53.7279 14.2721C50.3523 10.8964 45.7739 9 41 9Z" fill="#DEFE46"/>
</svg>
