<svg width="190" height="90" viewBox="0 0 190 90" fill="none" xmlns="http://www.w3.org/2000/svg">
<path d="M6.24944 59.9199H36.2494C37.8407 59.9199 39.3669 59.2878 40.4921 58.1626C41.6173 57.0373 42.2494 55.5112 42.2494 53.9199V35.9199C42.2494 34.3286 41.6173 32.8025 40.4921 31.6773C39.3669 30.5521 37.8407 29.9199 36.2494 29.9199H6.24944C4.65814 29.9199 3.13201 30.5521 2.0068 31.6773C0.881578 32.8025 0.249435 34.3286 0.249435 35.9199V53.9199C0.249435 55.5112 0.881578 57.0373 2.0068 58.1626C3.13201 59.2878 4.65814 59.9199 6.24944 59.9199ZM6.24944 35.9199H36.2494V53.9199H6.24944V35.9199Z" fill="#40C6FF"/>
<path d="M60.6494 69.5199L60.6494 20.3199L69.8894 20.3199L69.8894 15.5199L55.8494 15.52L55.8494 42.5199L46.2494 42.5199L46.2494 47.3199L55.8494 47.3199L55.8494 74.3199L69.8894 74.3199L69.8894 69.5199L60.6494 69.5199Z" fill="#40C6FF"/>
<path d="M109.889 0.419922H79.8894C78.2981 0.419922 76.772 1.05206 75.6468 2.17728C74.5216 3.3025 73.8894 4.82862 73.8894 6.41992V24.4199C73.8894 26.0112 74.5216 27.5373 75.6468 28.6626C76.772 29.7878 78.2981 30.4199 79.8894 30.4199H109.889C111.481 30.4199 113.007 29.7878 114.132 28.6626C115.257 27.5373 115.889 26.0112 115.889 24.4199V6.41992C115.889 4.82862 115.257 3.3025 114.132 2.17728C113.007 1.05206 111.481 0.419922 109.889 0.419922ZM79.8894 24.4199V6.41992H109.889V24.4199H79.8894Z" fill="#40C6FF"/>
<path d="M109.889 59.4199H79.8894C78.2981 59.4199 76.772 60.0521 75.6468 61.1773C74.5216 62.3025 73.8894 63.8286 73.8894 65.4199V83.4199C73.8894 85.0112 74.5216 86.5373 75.6468 87.6626C76.772 88.7878 78.2981 89.4199 79.8894 89.4199H109.889C111.481 89.4199 113.007 88.7878 114.132 87.6626C115.257 86.5373 115.889 85.0112 115.889 83.4199V65.4199C115.889 63.8286 115.257 62.3025 114.132 61.1773C113.007 60.0521 111.481 59.4199 109.889 59.4199ZM79.8894 83.4199V65.4199H109.889V83.4199H79.8894Z" fill="#40C6FF"/>
<path d="M129.129 69.5199L129.129 20.3199L119.889 20.3199L119.889 15.5199L133.929 15.52L133.929 42.5199L143.529 42.5199L143.529 47.3199L133.929 47.3199L133.929 74.3199L119.889 74.3199L119.889 69.5199L129.129 69.5199Z" fill="#40C6FF"/>
<path d="M153.529 82.4199H183.529C185.121 82.4199 186.647 81.7878 187.772 80.6626C188.897 79.5373 189.529 78.0112 189.529 76.4199V13.4199C189.529 11.8286 188.897 10.3025 187.772 9.17728C186.647 8.05206 185.121 7.41992 183.529 7.41992H153.529C151.938 7.41992 150.412 8.05206 149.287 9.17728C148.162 10.3025 147.529 11.8286 147.529 13.4199V76.4199C147.529 78.0112 148.162 79.5373 149.287 80.6626C150.412 81.7878 151.938 82.4199 153.529 82.4199ZM153.529 13.4199H183.529V76.4199H153.529V13.4199Z" fill="#40C6FF"/>
</svg>
